<svg width="196" height="43" viewBox="0 0 196 43" fill="none" xmlns="http://www.w3.org/2000/svg">
<path fill-rule="evenodd" clip-rule="evenodd" d="M30 4.5C30 4.77609 30.2239 5 30.5001 5C30.7761 5 31 4.77609 31 4.5C31 4.22391 30.7761 4 30.5001 4C30.2239 4 30 4.22391 30 4.5ZM25.2662 12.0581C25.487 11.7306 25.7089 11.3977 25.9305 11.0655C25.9698 11.0065 26.046 10.9838 26.1109 11.0122C26.9149 11.363 27.6708 11.8028 28.3664 12.3187C28.4229 12.3608 28.4406 12.4374 28.4091 12.5002L28.3414 12.6357C27.6148 14.0886 26.889 15.5399 26.4513 16.6986C26.4319 16.7505 26.4444 16.8077 26.4825 16.8481C27.1882 17.5967 27.7258 18.5042 28.0348 19.5111C28.051 19.5642 28.0953 19.6039 28.1503 19.6124C29.337 19.7983 30.8997 19.8912 32.4767 19.9849C32.5784 19.991 32.6801 19.997 32.7817 20.0031C32.852 20.0073 32.91 20.0611 32.9184 20.1308C32.972 20.5797 33 21.0367 33 21.5C33 21.9633 32.972 22.4203 32.9184 22.8692C32.91 22.9389 32.852 22.9927 32.7817 22.9969C32.68 23.003 32.5783 23.009 32.4767 23.0151C30.8996 23.1088 29.337 23.2017 28.1503 23.3876C28.0953 23.3961 28.051 23.4358 28.0348 23.4889C27.7258 24.4958 27.1882 25.4033 26.4825 26.1519C26.4444 26.1923 26.4319 26.2495 26.4513 26.3014C26.8893 27.4608 27.6159 28.9135 28.343 30.3675L28.4091 30.4998C28.4406 30.5624 28.4229 30.6392 28.3664 30.6813C27.6708 31.1972 26.9149 31.637 26.1109 31.9878C26.046 32.0162 25.9698 31.9935 25.9305 31.9345C25.0026 30.5428 24.0673 29.1416 23.2436 28.1591C23.2082 28.1168 23.1519 28.0992 23.0981 28.1121C22.5856 28.2345 22.0505 28.2993 21.5001 28.2993C20.9498 28.2993 20.4149 28.2345 19.9022 28.1121C19.8483 28.0994 19.792 28.1168 19.7566 28.1591C18.933 29.1416 17.9977 30.5428 17.0698 31.9345C17.0307 31.9935 16.9542 32.0162 16.8894 31.9878C16.0853 31.637 15.3295 31.1972 14.6341 30.6813C14.5776 30.6392 14.5596 30.5624 14.5911 30.4998L14.6537 30.3746C15.3823 28.9182 16.1104 27.4627 16.5489 26.3014C16.5686 26.2495 16.5558 26.1923 16.5177 26.1519C15.812 25.4033 15.2744 24.4958 14.9657 23.4889C14.9492 23.4358 14.9052 23.3961 14.8499 23.3876C13.6634 23.2017 12.1009 23.1088 10.5243 23.0151C10.4225 23.009 10.3206 23.003 10.2188 22.9969C10.1482 22.9927 10.0905 22.9389 10.0819 22.8692C10.028 22.4203 10 21.9633 10 21.5C10 21.0367 10.028 20.5797 10.0819 20.1308C10.0905 20.0611 10.1482 20.0073 10.2188 20.0031C10.3206 19.997 10.4224 19.991 10.5242 19.9849C12.1009 19.8912 13.6634 19.7983 14.8499 19.6124C14.9052 19.6039 14.9492 19.5642 14.9657 19.5111C15.2744 18.5042 15.812 17.5967 16.5177 16.8481C16.5558 16.8077 16.5686 16.7505 16.5489 16.6986C16.1101 15.5361 15.3811 14.0793 14.6517 12.6218C14.6314 12.5813 14.6111 12.5407 14.5909 12.5002C14.5596 12.4376 14.5776 12.3608 14.6341 12.3187C15.3295 11.8028 16.0853 11.363 16.8894 11.0122C16.9542 10.9838 17.0307 11.0065 17.0698 11.0655C17.9977 12.4572 18.933 13.8584 19.7566 14.8409C19.792 14.8834 19.8483 14.9008 19.9022 14.8879C20.4149 14.7655 20.9498 14.7007 21.5001 14.7007C22.0505 14.7007 22.5856 14.7655 23.0981 14.8879C23.1519 14.9008 23.2082 14.8834 23.2436 14.8409C23.7922 14.1865 24.3904 13.3463 25.0029 12.4469C25.0194 12.2936 25.1063 12.1501 25.25 12.0671C25.2554 12.064 25.2608 12.061 25.2662 12.0581ZM10 4.5C10 4.77609 10.2239 5 10.5 5C10.7763 5 11 4.77609 11 4.5C11 4.22391 10.7763 4 10.5 4C10.2239 4 10 4.22391 10 4.5Z" fill="#CB231B"/>
<path fill-rule="evenodd" clip-rule="evenodd" d="M42.0749 23.7818C42.0749 23.9235 42.0159 24.0589 41.9121 24.1555L41.1125 24.8998C40.8171 25.1746 40.3349 25.0144 40.2626 24.6175L40.0534 23.4681C40.013 23.2467 40.1227 23.0248 40.3232 22.9222L41.332 22.4062C41.6717 22.2325 42.0749 22.4791 42.0749 22.8607V23.7818ZM40.2388 30.2589L39.1341 30.7437C38.8858 30.8527 38.6235 30.622 38.6998 30.3619L39.0266 29.2458C39.0907 29.0272 39.3568 28.9442 39.5338 29.0878L40.3116 29.7192C40.497 29.8695 40.4574 30.163 40.2388 30.2589ZM38.66 32.5596L37.5549 33.0444C37.307 33.1532 37.0445 32.9227 37.1208 32.6626L37.4476 31.5465C37.5117 31.3279 37.7779 31.2449 37.9548 31.3885L38.7327 32.02C38.9182 32.1702 38.8787 32.4637 38.66 32.5596ZM36.7201 34.5896L35.6152 35.0745C35.3671 35.1835 35.1048 34.9528 35.1809 34.6926L35.5079 33.5765C35.572 33.3579 35.8381 33.2749 36.0151 33.4185L36.7929 34.05C36.9783 34.2003 36.9387 34.4937 36.7201 34.5896ZM35.0865 37.0107L34.4353 37.6622C34.3349 37.7624 34.1977 37.8163 34.0558 37.8114L32.964 37.7721C32.5609 37.7577 32.3332 37.3034 32.5628 36.9716L33.2276 36.011C33.3557 35.8257 33.5901 35.7465 33.8042 35.8156L34.8827 36.1643C35.2456 36.2815 35.3563 36.7411 35.0865 37.0107ZM30.6786 34.7726L27.6582 33.6993C26.6731 33.3493 26.5082 32.026 27.3775 31.445L27.6744 31.2466C30.7768 29.1731 34.1315 27.5045 37.6568 26.281C38.439 26.0094 39.1375 26.8563 38.7224 27.5727C37.2937 30.0366 35.5053 32.2734 33.4162 34.2093C32.6796 34.8919 31.6248 35.1089 30.6786 34.7726ZM29.3838 37.972C26.6316 38.7043 23.7852 39.0214 20.9393 38.9128H20.9391C19.9357 38.8748 19.0363 38.2825 18.605 37.3754L17.2282 34.4806C16.7792 33.5366 17.5986 32.4843 18.6239 32.6882L18.9742 32.7578C22.6339 33.4856 26.1859 34.6776 29.544 36.3051C30.289 36.6663 30.1843 37.7592 29.3838 37.972ZM28.5567 40.944L27.4327 40.5054C27.1803 40.4069 27.1579 40.0584 27.3957 39.9283L28.4161 39.3704C28.6161 39.2609 28.8629 39.3904 28.8865 39.6172L28.99 40.6137C29.0147 40.8511 28.7793 41.0306 28.5567 40.944ZM25.8135 41.4541L24.6895 41.0158C24.4371 40.9173 24.4145 40.5688 24.6523 40.4387L25.6727 39.8808C25.8727 39.7713 26.1195 39.9008 26.1431 40.1276L26.2468 41.1239C26.2713 41.3615 26.0361 41.541 25.8135 41.4541ZM23.0063 41.518L21.8823 41.0796C21.6299 40.9811 21.6075 40.6324 21.8453 40.5026L22.8657 39.9444C23.0656 39.8352 23.3125 39.9646 23.3359 40.1915L23.4397 41.1878C23.4642 41.4253 23.2288 41.6049 23.0063 41.518ZM20.1393 42.0749H19.2182C19.0765 42.0749 18.9411 42.0159 18.8445 41.9123L18.1002 41.1125C17.8254 40.8173 17.9856 40.3349 18.3825 40.2626L19.5319 40.0534C19.7536 40.013 19.9752 40.1227 20.0778 40.3232L20.5938 41.3322C20.7675 41.6717 20.5209 42.0749 20.1393 42.0749ZM16.6831 29.8429C16.368 29.661 16.26 29.2576 16.4419 28.9424C16.624 28.627 17.0271 28.5189 17.3425 28.701C17.6577 28.8831 17.7659 29.2862 17.5838 29.6016C17.4019 29.9168 16.9985 30.025 16.6831 29.8429ZM15.4273 38.7224C12.9634 37.2937 10.7266 35.5053 8.7907 33.4162C8.10808 32.6796 7.89114 31.6248 8.2274 30.6786L9.30068 27.6582C9.6507 26.6731 10.9742 26.5082 11.555 27.3775L11.7534 27.6744C13.8269 30.7768 15.4955 34.1315 16.719 37.6566C16.9906 38.439 16.1437 39.1375 15.4273 38.7224ZM13.9122 39.5338L13.2808 40.3116C13.1303 40.497 12.837 40.4574 12.7411 40.2388L12.2563 39.1341C12.1475 38.8858 12.378 38.6235 12.6381 38.6998L13.7542 39.0266C13.9728 39.0907 14.0558 39.3568 13.9122 39.5338ZM11.6115 37.9548L10.9801 38.7327C10.8298 38.9182 10.5363 38.8787 10.4404 38.6598L9.95557 37.5551C9.84657 37.307 10.0773 37.0445 10.3374 37.1208L11.4535 37.4476C11.6721 37.5117 11.7551 37.7779 11.6115 37.9548ZM9.58147 36.0151L8.95023 36.7929C8.79952 36.9783 8.50626 36.9387 8.41037 36.7201L7.92554 35.6152C7.81675 35.3671 8.04723 35.1048 8.30738 35.1809L9.42345 35.5079C9.64211 35.572 9.72509 35.8379 9.58147 36.0151ZM7.18444 33.8045L6.83571 34.8827C6.71853 35.2456 6.25886 35.3563 5.98925 35.0865L5.3378 34.4353C5.23761 34.3349 5.18343 34.1977 5.18859 34.056L5.22794 32.964C5.24234 32.5611 5.69664 32.3332 6.02838 32.5628L6.98901 33.2276C7.17434 33.3557 7.25345 33.5901 7.18444 33.8045ZM4.08715 20.9393C4.12542 19.9357 4.71753 19.0365 5.62462 18.605L8.51937 17.2282C9.46344 16.7792 10.5156 17.5986 10.3118 18.6239L10.2422 18.9742C9.51461 22.6339 8.32244 26.1859 6.69489 29.544C6.3339 30.289 5.24084 30.1843 5.02799 29.3838C4.2957 26.6316 3.97857 23.7852 4.08715 20.9393ZM3.97341 13.7542C3.90934 13.9728 3.64318 14.0558 3.46623 13.9122L2.68836 13.2808C2.50303 13.1305 2.54259 12.837 2.76125 12.7411L3.86613 12.2563C4.11424 12.1475 4.37654 12.378 4.30043 12.6381L3.97341 13.7542ZM3.38281 28.8863L2.38629 28.99C2.14893 29.0147 1.9694 28.7793 2.05626 28.5567L2.49465 27.4329C2.59312 27.1803 2.94163 27.1579 3.0717 27.3957L3.62963 28.4161C3.73906 28.6161 3.60963 28.8629 3.38281 28.8863ZM1.54585 25.8135L1.98424 24.6895C2.08271 24.4371 2.43122 24.4145 2.5613 24.6523L3.11922 25.6727C3.22866 25.8727 3.09923 26.1195 2.8724 26.1431L1.87609 26.2468C1.63851 26.2713 1.45899 26.0361 1.54585 25.8135ZM1.482 23.0063L1.92038 21.8823C2.01885 21.6299 2.36737 21.6075 2.49744 21.8453L3.05558 22.8657C3.1648 23.0656 3.03537 23.3125 2.80876 23.3361L1.81224 23.4395C1.57466 23.4642 1.39514 23.2288 1.482 23.0063ZM0.925145 20.1393V19.2182C0.925145 19.0765 0.984055 18.9411 1.08768 18.8445L1.88749 18.1002C2.18268 17.8254 2.66514 17.9856 2.73738 18.3825L2.94657 19.5319C2.98699 19.7533 2.87735 19.9752 2.67675 20.0778L1.66775 20.5938C1.32827 20.7675 0.925145 20.5209 0.925145 20.1393ZM4.3402 10.4404L5.44487 9.95557C5.6932 9.84678 5.9555 10.0773 5.87918 10.3374L5.55237 11.4535C5.48831 11.6721 5.22214 11.7551 5.04519 11.6115L4.26732 10.9801C4.08177 10.8298 4.12155 10.5363 4.3402 10.4404ZM6.27994 8.41037L7.38482 7.92554C7.63293 7.81675 7.89523 8.04723 7.81912 8.30738L7.49211 9.42345C7.42804 9.64211 7.16208 9.72509 6.98492 9.58147L6.20705 8.95002C6.02172 8.79974 6.06128 8.50626 6.27994 8.41037ZM7.9135 5.98926L8.56495 5.33781C8.66514 5.23762 8.80253 5.18365 8.944 5.1886L10.0358 5.22794C10.4389 5.24235 10.6668 5.69664 10.4374 6.02839L9.7724 6.98901C9.64425 7.17434 9.4099 7.25346 9.19576 7.18444L8.11732 6.83571C7.75441 6.71854 7.64368 6.25887 7.9135 5.98926ZM12.3214 8.2274L15.3418 9.30068C16.3269 9.6507 16.4918 10.974 15.6225 11.555L15.3256 11.7534C12.2232 13.8269 8.86854 15.4955 5.3434 16.719C4.56101 16.9906 3.86248 16.1437 4.27785 15.4273C5.70632 12.9634 7.49469 10.7266 9.58384 8.7907C10.3204 8.10808 11.3752 7.89114 12.3214 8.2274ZM13.6159 5.02799H13.6162C16.3684 4.2957 19.2148 3.97857 22.0607 4.08715C23.0643 4.12542 23.9637 4.71753 24.395 5.62462L25.7718 8.51937C26.2208 9.46344 25.4016 10.5156 24.3761 10.3118L24.026 10.2422C20.3661 9.51439 16.8141 8.32244 13.4562 6.69489C12.711 6.33368 12.8159 5.24084 13.6159 5.02799ZM14.4431 2.05605L15.5671 2.49464C15.8197 2.59311 15.8421 2.94163 15.6043 3.0717L14.5839 3.62963C14.3839 3.73906 14.1371 3.60963 14.1137 3.38281L14.01 2.3865C13.9853 2.14893 14.2207 1.9694 14.4431 2.05605ZM17.1865 1.54585L18.3105 1.98424C18.5629 2.08271 18.5855 2.43122 18.3477 2.5613L17.3273 3.11922C17.1273 3.22866 16.8805 3.09923 16.8569 2.8724L16.7532 1.87609C16.7285 1.63851 16.9639 1.45899 17.1865 1.54585ZM19.9937 1.482L21.1177 1.92038C21.3701 2.01885 21.3925 2.36758 21.1547 2.49744L20.1343 3.05558C19.9344 3.1648 19.6876 3.03537 19.6641 2.80855L19.5605 1.81224C19.5358 1.57466 19.7712 1.39514 19.9937 1.482ZM22.8607 0.925145H23.7818C23.9237 0.925145 24.0589 0.984055 24.1555 1.08768L24.8998 1.88749C25.1746 2.18268 25.0144 2.66514 24.6175 2.73738L23.4681 2.94657C23.2467 2.98699 23.0248 2.87735 22.9222 2.67675L22.4062 1.66775C22.2325 1.32827 22.4791 0.925145 22.8607 0.925145ZM26.3166 13.1571C26.6321 13.339 26.7402 13.7424 26.5581 14.0576C26.376 14.373 25.9729 14.4811 25.6575 14.299C25.3423 14.1169 25.2341 13.7138 25.4162 13.3984C25.5983 13.0832 26.0015 12.975 26.3166 13.1571ZM30.4743 22.1592C30.1101 22.1592 29.8149 21.864 29.8149 21.5C29.8149 21.136 30.1101 20.8408 30.4743 20.8408C30.8383 20.8408 31.1335 21.136 31.1335 21.5C31.1335 21.864 30.8383 22.1592 30.4743 22.1592ZM16.6831 13.1571C16.9985 12.975 17.4019 13.0832 17.5838 13.3984C17.7659 13.7138 17.6577 14.1169 17.3425 14.299C17.0271 14.4811 16.624 14.373 16.4419 14.0576C16.26 13.7424 16.368 13.339 16.6831 13.1571ZM11.8665 21.5C11.8665 21.136 12.1617 20.8408 12.5257 20.8408C12.8899 20.8408 13.1849 21.136 13.1849 21.5C13.1849 21.864 12.8899 22.1592 12.5257 22.1592C12.1617 22.1592 11.8665 21.864 11.8665 21.5ZM26.3166 29.8429C26.0015 30.025 25.5983 29.9168 25.4162 29.6016C25.2341 29.2862 25.3423 28.8831 25.6575 28.701C25.9729 28.5189 26.376 28.627 26.5581 28.9424C26.7402 29.2576 26.6321 29.661 26.3166 29.8429ZM25.1668 27.8567C24.5332 28.2233 24.1097 29.4675 23.6908 30.7779C23.5548 31.2029 23.1856 31.5138 22.7427 31.5682C22.3355 31.6181 21.9208 31.6439 21.5 31.6439C21.0792 31.6439 20.6645 31.6181 20.2573 31.5682C19.8144 31.5138 19.4452 31.2029 19.3094 30.7779C18.8901 29.4675 18.4668 28.2233 17.8332 27.8567C17.1796 27.4785 15.8805 27.721 14.534 28.0074C14.0958 28.1005 13.643 27.9317 13.3745 27.5731C12.908 26.9496 12.5115 26.2704 12.1967 25.5478C12.017 25.1354 12.0953 24.6566 12.3952 24.3217C13.3113 23.2983 14.1633 22.2832 14.1633 21.5C14.1633 20.7168 13.3113 19.7017 12.3952 18.6783C12.0953 18.3434 12.017 17.8646 12.1967 17.4522C12.5115 16.7296 12.908 16.0504 13.3745 15.4269C13.643 15.0683 14.0958 14.8995 14.534 14.9926C15.8805 15.279 17.1796 15.5215 17.8332 15.1433C18.4668 14.7767 18.8901 13.5325 19.3094 12.2221C19.4452 11.797 19.8144 11.4862 20.2573 11.4318C20.6645 11.3821 21.0792 11.3561 21.5 11.3561C21.9208 11.3561 22.3355 11.3821 22.7427 11.4318C23.1856 11.4862 23.5548 11.797 23.6908 12.2221C24.1097 13.5325 24.5332 14.7767 25.1668 15.1433C25.8204 15.5215 27.1195 15.279 28.466 14.9926C28.9042 14.8995 29.357 15.0683 29.6255 15.4269C30.092 16.0504 30.4885 16.7296 30.8035 17.4522C30.983 17.8646 30.9047 18.3434 30.6048 18.6783C29.6887 19.7017 28.8369 20.7168 28.8369 21.5C28.8369 22.2832 29.6887 23.2983 30.6048 24.3217C30.9047 24.6566 30.983 25.1354 30.8035 25.5478C30.4885 26.2704 30.092 26.9496 29.6255 27.5731C29.357 27.9317 28.9042 28.1005 28.466 28.0074C27.1195 27.721 25.8204 27.4785 25.1668 27.8567ZM27.5727 4.27764C30.0366 5.70632 32.2734 7.49469 34.2093 9.58384C34.8919 10.3204 35.1089 11.3752 34.7726 12.3214L33.6993 15.3418C33.3493 16.3269 32.026 16.4918 31.445 15.6225L31.2466 15.3256C29.1731 12.2232 27.5045 8.86854 26.2807 5.3434C26.0094 4.56101 26.8563 3.86247 27.5727 4.27764ZM29.0878 3.46623L29.7192 2.68836C29.8695 2.50303 30.163 2.54259 30.2589 2.76125L30.7437 3.86613C30.8527 4.11424 30.622 4.37654 30.3619 4.30043L29.2458 3.97341C29.0272 3.90934 28.9442 3.64318 29.0878 3.46623ZM31.3885 5.04519L32.02 4.26732C32.1702 4.08177 32.4637 4.12134 32.5596 4.3402L33.0444 5.44487C33.1532 5.69299 32.9227 5.9555 32.6626 5.87917L31.5465 5.55237C31.3279 5.4883 31.2449 5.22214 31.3885 5.04519ZM33.4185 6.98492L34.05 6.20705C34.2003 6.02172 34.4937 6.06128 34.5896 6.27994L35.0745 7.38482C35.1835 7.63293 34.9528 7.89523 34.6926 7.81912L33.5765 7.49211C33.3579 7.42804 33.2749 7.16208 33.4185 6.98492ZM35.8158 9.19576L36.1643 8.11732C36.2817 7.75441 36.7411 7.64368 37.0107 7.9135L37.6622 8.56474C37.7624 8.66514 37.8163 8.80231 37.8114 8.944L37.7721 10.036C37.7577 10.4389 37.3034 10.6668 36.9716 10.4372L36.011 9.7724C35.8257 9.64425 35.7465 9.4099 35.8158 9.19576ZM38.9128 22.0607C38.8748 23.0643 38.2825 23.9637 37.3754 24.395L34.4806 25.7718C33.5366 26.2208 32.4843 25.4014 32.6882 24.3761L32.7578 24.026C33.4856 20.3661 34.6776 16.8141 36.3051 13.456C36.6663 12.711 37.7592 12.8157 37.972 13.6162C38.7043 16.3684 39.0212 19.2148 38.9128 22.0607ZM39.6172 14.1137L40.6135 14.01C40.8511 13.9853 41.0306 14.2207 40.944 14.4433L40.5054 15.5671C40.4069 15.8197 40.0584 15.8421 39.9283 15.6043L39.3704 14.5839C39.2609 14.3839 39.3904 14.1371 39.6172 14.1137ZM41.518 19.9937L41.0796 21.1177C40.9809 21.3701 40.6324 21.3925 40.5026 21.1547L39.9444 20.1343C39.8352 19.9344 39.9646 19.6876 40.1915 19.6641L41.1878 19.5605C41.4253 19.5358 41.6049 19.7712 41.518 19.9937ZM41.4542 17.1865L41.0158 18.3105C40.9173 18.5629 40.5688 18.5855 40.4387 18.3477L39.8808 17.3273C39.7713 17.1273 39.901 16.8805 40.1276 16.8569L41.1239 16.7532C41.3615 16.7287 41.541 16.9639 41.4542 17.1865ZM41.3537 13.236C41.312 13.1359 41.2533 13.0441 41.1807 12.9636L39.2072 10.7769C39.084 10.6403 39.0027 10.4714 38.9733 10.2899L38.735 8.83005C38.7097 8.67525 38.6475 8.52841 38.5519 8.40392C36.2632 5.42854 33.2132 3.06977 29.6932 1.61787C29.593 1.57638 29.4862 1.55295 29.3778 1.54757L26.4386 1.39685C26.2549 1.3874 26.078 1.32526 25.9286 1.21798L24.7276 0.35389C24.6001 0.262085 24.4522 0.2021 24.2963 0.18189C23.381 0.06278 22.4479 0 21.5 0C18.5715 0 15.7801 0.585875 13.236 1.64626C13.1359 1.68797 13.0441 1.74687 12.9636 1.81933L10.7769 3.79281C10.6403 3.91601 10.4714 3.99728 10.2899 4.02673L8.83005 4.26496C8.67525 4.29033 8.52841 4.35246 8.40392 4.44835C5.42854 6.73681 3.06977 9.78701 1.61766 13.3068C1.57638 13.407 1.55295 13.5138 1.54736 13.6222L1.39664 16.5614C1.38739 16.7451 1.32526 16.9222 1.21776 17.0712L0.35389 18.2722C0.262085 18.3999 0.2021 18.548 0.18189 18.7037C0.06278 19.6192 0 20.5521 0 21.5C0 24.4285 0.585875 27.2199 1.64626 29.7642C1.68797 29.8641 1.74687 29.9559 1.81933 30.0364L3.79281 32.2231C3.91601 32.3596 3.99706 32.5286 4.02673 32.7101L4.26496 34.1699C4.29033 34.3247 4.35246 34.4718 4.44835 34.5961C6.73681 37.5715 9.78701 39.9302 13.3068 41.3821C13.407 41.4236 13.5138 41.4471 13.6222 41.4524L16.5614 41.6031C16.7451 41.6126 16.9222 41.6747 17.0712 41.782L18.2722 42.6463C18.3999 42.7379 18.5478 42.7979 18.7037 42.8181C19.6192 42.9374 20.5521 43 21.5 43C24.4285 43 27.2199 42.4141 29.7642 41.3537C29.8639 41.312 29.9559 41.2533 30.0364 41.1807L32.2231 39.2072C32.3596 39.084 32.5286 39.0027 32.7101 38.9733L34.1699 38.735C34.3247 38.7097 34.4718 38.6475 34.5961 38.5519C37.5715 36.2632 39.9302 33.2132 41.3821 29.6932C41.4236 29.593 41.4468 29.4862 41.4524 29.3778L41.6031 26.4386C41.6126 26.2549 41.6747 26.0778 41.7822 25.9288L42.6463 24.7278C42.7379 24.6001 42.7979 24.452 42.8181 24.2963C42.9374 23.381 43 22.4479 43 21.5C43 18.5715 42.4139 15.7801 41.3537 13.236Z" fill="#CB231B"/>
<path d="M64.196 29.264C63.008 29.264 61.9007 29.0733 60.874 28.692C59.862 28.296 58.982 27.7387 58.234 27.02C57.486 26.3013 56.8993 25.458 56.474 24.49C56.0633 23.522 55.858 22.4587 55.858 21.3C55.858 20.1413 56.0633 19.078 56.474 18.11C56.8993 17.142 57.486 16.2987 58.234 15.58C58.9967 14.8613 59.884 14.3113 60.896 13.93C61.908 13.534 63.0153 13.336 64.218 13.336C65.5527 13.336 66.7553 13.5707 67.826 14.04C68.9113 14.4947 69.8207 15.1693 70.554 16.064L68.266 18.176C67.738 17.5747 67.1513 17.1273 66.506 16.834C65.8607 16.526 65.1567 16.372 64.394 16.372C63.6753 16.372 63.0153 16.4893 62.414 16.724C61.8127 16.9587 61.292 17.296 60.852 17.736C60.412 18.176 60.0673 18.6967 59.818 19.298C59.5833 19.8993 59.466 20.5667 59.466 21.3C59.466 22.0333 59.5833 22.7007 59.818 23.302C60.0673 23.9033 60.412 24.424 60.852 24.864C61.292 25.304 61.8127 25.6413 62.414 25.876C63.0153 26.1107 63.6753 26.228 64.394 26.228C65.1567 26.228 65.8607 26.0813 66.506 25.788C67.1513 25.48 67.738 25.018 68.266 24.402L70.554 26.514C69.8207 27.4087 68.9113 28.0907 67.826 28.56C66.7553 29.0293 65.5453 29.264 64.196 29.264ZM74.8992 29V13.6H77.8472L86.9332 24.688H85.5032V13.6H89.0232V29H86.0972L76.9892 17.912H78.4192V29H74.8992ZM92.8453 29L99.4673 19.87V22.466L93.1313 13.6H97.1793L101.557 19.782L99.8633 19.804L104.175 13.6H108.047L101.755 22.312V19.76L108.421 29H104.307L99.7753 22.466H101.403L96.9373 29H92.8453ZM120.418 29V13.6H127.942C129.878 13.6 131.33 13.9667 132.298 14.7C133.28 15.4333 133.772 16.4013 133.772 17.604C133.772 18.4107 133.574 19.1147 133.178 19.716C132.782 20.3027 132.239 20.7573 131.55 21.08C130.86 21.4027 130.068 21.564 129.174 21.564L129.592 20.662C130.56 20.662 131.418 20.8233 132.166 21.146C132.914 21.454 133.493 21.916 133.904 22.532C134.329 23.148 134.542 23.9033 134.542 24.798C134.542 26.118 134.021 27.152 132.98 27.9C131.938 28.6333 130.406 29 128.382 29H120.418ZM123.96 26.316H128.118C129.042 26.316 129.738 26.1693 130.208 25.876C130.692 25.568 130.934 25.084 130.934 24.424C130.934 23.7787 130.692 23.302 130.208 22.994C129.738 22.6713 129.042 22.51 128.118 22.51H123.696V19.914H127.502C128.367 19.914 129.027 19.7673 129.482 19.474C129.951 19.166 130.186 18.704 130.186 18.088C130.186 17.4867 129.951 17.0393 129.482 16.746C129.027 16.438 128.367 16.284 127.502 16.284H123.96V26.316ZM139.178 29V13.6H142.742V29H139.178ZM151.526 25.48L151.328 21.366L158.698 13.6H162.658L156.014 20.75L154.034 22.862L151.526 25.48ZM148.336 29V13.6H151.878V29H148.336ZM158.874 29L153.396 22.29L155.728 19.76L163.032 29H158.874ZM169.837 19.804H177.251V22.576H169.837V19.804ZM170.101 26.14H178.483V29H166.559V13.6H178.197V16.46H170.101V26.14ZM188.318 29.264C187.086 29.264 185.905 29.1027 184.776 28.78C183.646 28.4427 182.737 28.01 182.048 27.482L183.258 24.798C183.918 25.2673 184.695 25.656 185.59 25.964C186.499 26.2573 187.416 26.404 188.34 26.404C189.044 26.404 189.608 26.338 190.034 26.206C190.474 26.0593 190.796 25.8613 191.002 25.612C191.207 25.3627 191.31 25.0767 191.31 24.754C191.31 24.3433 191.148 24.0207 190.826 23.786C190.503 23.5367 190.078 23.3387 189.55 23.192C189.022 23.0307 188.435 22.884 187.79 22.752C187.159 22.6053 186.521 22.4293 185.876 22.224C185.245 22.0187 184.666 21.7547 184.138 21.432C183.61 21.1093 183.177 20.684 182.84 20.156C182.517 19.628 182.356 18.9533 182.356 18.132C182.356 17.252 182.59 16.4527 183.06 15.734C183.544 15.0007 184.262 14.4213 185.216 13.996C186.184 13.556 187.394 13.336 188.846 13.336C189.814 13.336 190.767 13.4533 191.706 13.688C192.644 13.908 193.473 14.2453 194.192 14.7L193.092 17.406C192.373 16.9953 191.654 16.6947 190.936 16.504C190.217 16.2987 189.513 16.196 188.824 16.196C188.134 16.196 187.57 16.2767 187.13 16.438C186.69 16.5993 186.374 16.812 186.184 17.076C185.993 17.3253 185.898 17.6187 185.898 17.956C185.898 18.352 186.059 18.6747 186.382 18.924C186.704 19.1587 187.13 19.3493 187.658 19.496C188.186 19.6427 188.765 19.7893 189.396 19.936C190.041 20.0827 190.679 20.2513 191.31 20.442C191.955 20.6327 192.542 20.8893 193.07 21.212C193.598 21.5347 194.023 21.96 194.346 22.488C194.683 23.016 194.852 23.6833 194.852 24.49C194.852 25.3553 194.61 26.1473 194.126 26.866C193.642 27.5847 192.916 28.164 191.948 28.604C190.994 29.044 189.784 29.264 188.318 29.264Z" fill="black"/>
</svg>
